<?xml version="1.0" encoding="UTF-8" standalone="no"?>
<!DOCTYPE svg PUBLIC "-//W3C//DTD SVG 1.1//EN"
 "http://www.w3.org/Graphics/SVG/1.1/DTD/svg11.dtd">
<!-- Generated by graphviz version 2.43.0 (0)
 -->
<!-- Title: Bud Pages: 1 -->
<svg width="102pt" height="171pt"
 viewBox="0.00 0.00 101.50 171.00" xmlns="http://www.w3.org/2000/svg" xmlns:xlink="http://www.w3.org/1999/xlink">
<g id="graph0" class="graph" transform="scale(1 1) rotate(0) translate(4 167)">
<title>Bud</title>
<!-- Node1 -->
<g id="node1" class="node">
<title>Node1</title>
<g id="a_node1"><a xlink:title="The bud organ.">
<polygon fill="#bfbfbf" stroke="black" points="20,-0.5 20,-57.5 82,-57.5 82,-0.5 20,-0.5"/>
<text text-anchor="middle" x="51" y="-45.5" font-family="Helvetica,sans-Serif" font-size="10.00">Bud</text>
<polyline fill="none" stroke="black" points="20,-38.5 82,-38.5 "/>
<text text-anchor="middle" x="51" y="-26.5" font-family="Helvetica,sans-Serif" font-size="10.00"> </text>
<polyline fill="none" stroke="black" points="20,-19.5 82,-19.5 "/>
<text text-anchor="start" x="28" y="-7.5" font-family="Helvetica,sans-Serif" font-size="10.00">+ getID()</text>
</a>
</g>
</g>
<!-- Node2 -->
<g id="node2" class="node">
<title>Node2</title>
<g id="a_node2"><a xlink:href="classOrgan.html" target="_top" xlink:title=" ">
<polygon fill="none" stroke="black" points="0,-105.5 0,-162.5 46,-162.5 46,-105.5 0,-105.5"/>
<text text-anchor="middle" x="23" y="-150.5" font-family="Helvetica,sans-Serif" font-size="10.00">Organ</text>
<polyline fill="none" stroke="black" points="0,-143.5 46,-143.5 "/>
<text text-anchor="middle" x="23" y="-131.5" font-family="Helvetica,sans-Serif" font-size="10.00"> </text>
<polyline fill="none" stroke="black" points="0,-124.5 46,-124.5 "/>
<text text-anchor="middle" x="23" y="-112.5" font-family="Helvetica,sans-Serif" font-size="10.00"> </text>
</a>
</g>
</g>
<!-- Node2&#45;&gt;Node1 -->
<g id="edge1" class="edge">
<title>Node2&#45;&gt;Node1</title>
<path fill="none" stroke="midnightblue" d="M33.15,-95.66C36.56,-83.11 40.3,-69.35 43.48,-57.68"/>
<polygon fill="none" stroke="midnightblue" points="29.75,-94.83 30.5,-105.4 36.5,-96.67 29.75,-94.83"/>
</g>
<!-- Node3 -->
<g id="node3" class="node">
<title>Node3</title>
<g id="a_node3"><a xlink:title=" ">
<polygon fill="none" stroke="#bfbfbf" points="64.5,-105.5 64.5,-162.5 93.5,-162.5 93.5,-105.5 64.5,-105.5"/>
<text text-anchor="middle" x="79" y="-150.5" font-family="Helvetica,sans-Serif" font-size="10.00">int</text>
<polyline fill="none" stroke="#bfbfbf" points="64.5,-143.5 93.5,-143.5 "/>
<text text-anchor="middle" x="79" y="-131.5" font-family="Helvetica,sans-Serif" font-size="10.00"> </text>
<polyline fill="none" stroke="#bfbfbf" points="64.5,-124.5 93.5,-124.5 "/>
<text text-anchor="middle" x="79" y="-112.5" font-family="Helvetica,sans-Serif" font-size="10.00"> </text>
</a>
</g>
</g>
<!-- Node3&#45;&gt;Node1 -->
<g id="edge2" class="edge">
<title>Node3&#45;&gt;Node1</title>
<path fill="none" stroke="#404040" d="M71.5,-105.4C68.48,-94.31 64.95,-81.33 61.68,-69.3"/>
<polygon fill="none" stroke="#404040" points="61.67,-69.26 56.24,-64.52 58.52,-57.68 63.96,-62.42 61.67,-69.26"/>
<text text-anchor="middle" x="76" y="-79" font-family="Helvetica,sans-Serif" font-size="10.00"> #ID</text>
</g>
</g>
</svg>
