<?xml version="1.0" encoding="UTF-8" standalone="no"?>
<!DOCTYPE svg PUBLIC "-//W3C//DTD SVG 1.1//EN"
 "http://www.w3.org/Graphics/SVG/1.1/DTD/svg11.dtd">
<!-- Generated by graphviz version 2.43.0 (0)
 -->
<!-- Title: Bud Pages: 1 -->
<svg width="70pt" height="160pt"
 viewBox="0.00 0.00 70.00 160.00" xmlns="http://www.w3.org/2000/svg" xmlns:xlink="http://www.w3.org/1999/xlink">
<g id="graph0" class="graph" transform="scale(1 1) rotate(0) translate(4 156)">
<title>Bud</title>
<!-- Node1 -->
<g id="node1" class="node">
<title>Node1</title>
<g id="a_node1"><a xlink:title="The bud organ.">
<polygon fill="#bfbfbf" stroke="black" points="0,-0.5 0,-57.5 62,-57.5 62,-0.5 0,-0.5"/>
<text text-anchor="middle" x="31" y="-45.5" font-family="Helvetica,sans-Serif" font-size="10.00">Bud</text>
<polyline fill="none" stroke="black" points="0,-38.5 62,-38.5 "/>
<text text-anchor="start" x="8" y="-26.5" font-family="Helvetica,sans-Serif" font-size="10.00"># ID</text>
<polyline fill="none" stroke="black" points="0,-19.5 62,-19.5 "/>
<text text-anchor="start" x="8" y="-7.5" font-family="Helvetica,sans-Serif" font-size="10.00">+ getID()</text>
</a>
</g>
</g>
<!-- Node2 -->
<g id="node2" class="node">
<title>Node2</title>
<g id="a_node2"><a xlink:href="classOrgan.html" target="_top" xlink:title=" ">
<polygon fill="none" stroke="black" points="8,-94.5 8,-151.5 54,-151.5 54,-94.5 8,-94.5"/>
<text text-anchor="middle" x="31" y="-139.5" font-family="Helvetica,sans-Serif" font-size="10.00">Organ</text>
<polyline fill="none" stroke="black" points="8,-132.5 54,-132.5 "/>
<text text-anchor="middle" x="31" y="-120.5" font-family="Helvetica,sans-Serif" font-size="10.00"> </text>
<polyline fill="none" stroke="black" points="8,-113.5 54,-113.5 "/>
<text text-anchor="middle" x="31" y="-101.5" font-family="Helvetica,sans-Serif" font-size="10.00"> </text>
</a>
</g>
</g>
<!-- Node2&#45;&gt;Node1 -->
<g id="edge1" class="edge">
<title>Node2&#45;&gt;Node1</title>
<path fill="none" stroke="midnightblue" d="M31,-84.21C31,-75.29 31,-65.95 31,-57.58"/>
<polygon fill="none" stroke="midnightblue" points="27.5,-84.4 31,-94.4 34.5,-84.4 27.5,-84.4"/>
</g>
</g>
</svg>
